# xmcd
#
# Track frame offsets: 
#        150
#        15553
#        31983
#        46555
#        64628
#        75614
#        90012
#        102565
#        115156
#        127038
#        136970
#        161239
#        176317
#        186502
#        198314
#        212613
#        226977
#        243587
#        255907
#        272062
#        286325
#        300233
#
# Disc length: 4212 seconds
#
# Revision: 0
# Processed by: cddbd v1.5.2PL0 Copyright (c) Steve Scherf et al.
# Submitted via: ExactAudioCopyFreeDBPlugin 1.0
#
DISCID=1e107216
DTITLE=Various Artist - The Complete Stax-Volt Singles, 1959-1975
DYEAR=2018
DGENRE=Soul
TTITLE0=Sid Selvidge - The Ballad of Oris B. Watson
TTITLE1=The Caboose - Black Hands White Cotton
TTITLE2=Dallas Country - Love's Not Hard to Find
TTITLE3=Casper Peters - April
TTITLE4=Clark Sullivan - Reaching for a Rainbow
TTITLE5=Billy Eckstine - I Wanna Be Your Baby
TTITLE6=Chuck Boris - Why Did it Take So Long
TTITLE7=Barbara Lewis - Why Did it Take So Long
TTITLE8=Finley Brown - Gypsy
TTITLE9=O.B. McClinton - Slip Away
TTITLE10=Billy Eckstine - When Something is Wrong
TTITLE11=Ben Atkins - Good Times Are Coming
TTITLE12=The River City Street Band - Some Other Man
TTITLE13=O.B. McClinton - Don't Let the Green Grass Fool You
TTITLE14=Big Ben - Would I Be Better Gone?
TTITLE15=Don Nix - Black Cat Moan
TTITLE16=Don Nix - She's a Friend of Mine
TTITLE17=Larry Raspberry and The Highsteppers - Rock 'n Roll Warning
TTITLE18=Chico Hamilton - Conquistadores '74
TTITLE19=Cliff Cochran - The Way I'm Needing You
TTITLE20=Connie Eaton - Lets Get Together
TTITLE21=Karen Casy - The Way I'm Needing You
EXTD=
EXTT0=
EXTT1=
EXTT2=
EXTT3=
EXTT4=
EXTT5=
EXTT6=
EXTT7=
EXTT8=
EXTT9=
EXTT10=
EXTT11=
EXTT12=
EXTT13=
EXTT14=
EXTT15=
EXTT16=
EXTT17=
EXTT18=
EXTT19=
EXTT20=
EXTT21=
PLAYORDER=
